<svg width="52" height="47" viewBox="0 0 52 47" fill="none" xmlns="http://www.w3.org/2000/svg">
<path d="M51.7567 2.52901C51.552 1.80353 51.1161 1.16469 50.5151 0.709596C49.9142 0.254498 49.1812 0.00801674 48.4274 0.00760986C42.6337 -0.00253662 36.8418 -0.00253662 31.0515 0.00760986C30.373 0.00760986 29.91 0.412201 29.91 0.99055C29.91 1.5689 30.3628 1.98237 31.0325 1.99759C31.1593 1.99759 31.2976 1.99759 31.4307 1.99759H48.1065C49.3342 1.99759 49.8973 2.56199 49.8973 3.79225V28.849H2.88363V3.81381C2.88363 2.5455 3.43534 1.99505 4.69985 1.99505H21.5303C21.6961 2.00183 21.8621 1.99845 22.0275 1.9849C22.177 1.97099 22.3214 1.92329 22.4499 1.84542C22.5783 1.76754 22.6873 1.66153 22.7688 1.53536C22.8503 1.40919 22.902 1.26617 22.9201 1.11709C22.9383 0.968008 22.9223 0.816755 22.8735 0.674741C22.7187 0.218149 22.3382 0.00126831 21.6686 0.00126831H4.63897C2.33572 0.00126831 0.891113 1.45602 0.891113 3.77449C0.891113 13.5506 0.891113 23.3272 0.891113 33.1042C0.891113 35.4049 2.3484 36.8558 4.65926 36.8571C9.87117 36.8571 15.0831 36.8571 20.295 36.8571H20.8746V40.3449C19.8447 40.3449 18.8453 40.3297 17.856 40.3449C16.9577 40.3601 16.1003 40.7226 15.4634 41.3564C14.8266 41.9901 14.46 42.8458 14.4405 43.744C14.4265 44.3908 14.4316 45.039 14.4405 45.6858C14.4493 46.4328 14.8298 46.8032 15.5883 46.8133C15.9688 46.8133 16.3493 46.8133 16.7298 46.8133H37.0988C37.9866 46.8133 38.3392 46.4658 38.343 45.5818C38.343 44.9667 38.3646 44.3515 38.3354 43.7389C38.2695 42.3438 37.615 41.2886 36.3518 40.695C35.8584 40.4654 35.2699 40.3817 34.7182 40.35C33.7822 40.2955 32.8398 40.3348 31.9076 40.3348V36.8571H32.5418C37.7841 36.8571 43.029 36.8571 48.2764 36.8571C50.0292 36.8571 51.3204 35.8615 51.7922 34.1873C51.8191 34.1124 51.8522 34.0399 51.8911 33.9704V2.89682C51.8455 2.76999 51.7935 2.65204 51.7567 2.52901ZM34.4912 42.3349C35.8204 42.3349 36.3518 42.8701 36.3505 44.2107V44.7891H16.466C16.4552 44.7628 16.4467 44.7356 16.4406 44.7079C16.2859 43.035 16.7983 42.2411 18.6868 42.321C20.3939 42.392 22.1112 42.34 23.8158 42.3324C24.3586 42.3324 24.7379 42.0445 24.8622 41.5828C24.917 41.3721 24.8995 41.1492 24.8126 40.9496C24.7257 40.75 24.5743 40.5853 24.3827 40.4819C24.202 40.4023 24.008 40.3571 23.8107 40.3487C23.5317 40.3272 23.2501 40.3487 22.9381 40.3487V36.885H29.8377V40.3437C29.5549 40.3437 29.2619 40.3373 28.969 40.3437C28.3348 40.3602 27.8896 40.7647 27.8884 41.3355C27.8871 41.9062 28.3247 42.3273 28.9639 42.3311C30.8067 42.3413 32.6496 42.3349 34.4912 42.3349ZM49.8479 33.6711C49.7883 34.3611 49.1528 34.8227 48.4527 34.862C48.3043 34.8696 48.1547 34.862 48.005 34.862H4.78609C3.40998 34.862 2.88363 34.3433 2.88363 32.9824V30.8973H49.8644C49.8644 31.8358 49.924 32.7566 49.8479 33.6711Z" fill="#F5EF25"/>
<path d="M13.8406 21.1262C13.8406 22.2702 13.8406 23.4151 13.8406 24.5608C13.8406 25.5856 14.1538 25.9001 15.1748 25.9001H30.8537C36.1299 25.9001 41.406 25.9001 46.6822 25.9001C47.5396 25.9001 47.901 25.5425 47.9048 24.6978C47.9048 23.503 47.9048 22.3083 47.9048 21.1135C47.9048 20.293 47.537 19.9251 46.719 19.9251H15.0112C14.2084 19.9251 13.8444 20.3006 13.8406 21.1262ZM39.917 21.9532H45.8933V23.8797H39.917V21.9532ZM31.9077 21.9532H37.8687V23.8848H31.9077V21.9532ZM23.8792 21.9443H29.8403V23.8759H23.8792V21.9443ZM15.8572 21.943H21.8335V23.8658H15.8572V21.943Z" fill="#F5EF25"/>
<path d="M33.252 10.201C34.4214 9.9702 35.5997 9.78249 36.7703 9.56687C37.1952 9.4857 37.3956 9.59858 37.5541 10.0425C38.2885 12.0984 40.3952 13.2653 42.564 12.8708C43.5921 12.6759 44.5196 12.1274 45.1856 11.3203C45.8516 10.5132 46.2141 9.49844 46.2104 8.45203C46.2015 6.22615 44.5983 4.40359 42.323 4.03451C40.2696 3.70094 38.1452 5.02379 37.4806 7.08987C37.3677 7.44119 37.1965 7.52616 36.8629 7.57817C35.4893 7.79378 34.1183 8.02841 32.7549 8.29856C32.0903 8.4254 31.7478 8.98472 31.9013 9.5339C32.0547 10.0831 32.5989 10.3291 33.252 10.201ZM41.7193 5.98009C42.2112 5.97786 42.6928 6.12143 43.1033 6.39268C43.5137 6.66393 43.8346 7.05071 44.0254 7.50418C44.2162 7.95765 44.2684 8.45749 44.1754 8.94059C44.0823 9.42369 43.8482 9.86839 43.5027 10.2186C43.1571 10.5687 42.7155 10.8087 42.2337 10.9081C41.7519 11.0075 41.2514 10.9619 40.7954 10.7771C40.3395 10.5924 39.9485 10.2766 39.6718 9.8698C39.3952 9.46297 39.2453 8.98331 39.241 8.49135C39.2388 8.16373 39.3012 7.83889 39.4246 7.53538C39.5479 7.23187 39.7299 6.95563 39.96 6.72244C40.1901 6.48924 40.464 6.30366 40.7658 6.17629C41.0677 6.04892 41.3916 5.98225 41.7193 5.98009Z" fill="#F5EF25"/>
<path d="M4.87737 25.7619C4.88625 26.7258 5.64724 27.1812 6.47037 26.6967C8.0845 25.7471 9.69103 24.7836 11.2899 23.8062C12.0598 23.3356 12.0509 22.4795 11.2697 22.0052C9.66905 21.0311 8.06252 20.0681 6.45008 19.116C5.65358 18.648 4.89005 19.1046 4.88118 20.0368C4.8723 20.969 4.88118 21.9291 4.88118 22.874C4.88118 23.8189 4.86976 24.7993 4.87737 25.7619ZM6.88257 21.6894L8.91187 22.907L6.88257 24.1296V21.6894Z" fill="#F5EF25"/>
<path d="M22.4891 14.46C21.4594 12.9889 20.2237 11.6733 18.8199 10.5536C18.2606 10.1135 17.653 10.1414 17.2827 10.617C16.9123 11.0926 17.029 11.6646 17.5655 12.0946C19.3189 13.4999 20.7789 15.2361 21.8626 17.2046C22.087 17.6067 22.3534 17.9237 22.8468 17.9263C23.3642 17.9263 23.623 17.5876 23.8614 17.1742C24.3163 16.3458 24.8137 15.5414 25.3517 14.7644C26.138 13.6762 27.1641 12.8315 28.3132 12.139C28.681 11.9183 28.9676 11.5835 28.8509 11.1637C28.7647 10.8504 28.5186 10.4674 28.2447 10.3545C27.9707 10.2416 27.5141 10.324 27.23 10.4813C25.3999 11.5429 23.9819 13.0382 22.8163 14.8925C22.6819 14.7137 22.5791 14.5868 22.4891 14.46Z" fill="#F5EF25"/>
<path d="M13.7784 10.1782C14.4125 10.3114 14.9199 10.0121 15.0378 9.46288C15.1646 8.88453 14.8501 8.39116 14.2134 8.26686C13.4372 8.11847 12.6496 8.02081 11.6616 7.86481C10.8334 8.05759 9.83013 8.2453 8.8548 8.53321C8.27645 8.70189 8.06083 9.29419 8.26503 9.81674C8.30898 9.93865 8.37725 10.0504 8.46569 10.1451C8.55413 10.2398 8.6609 10.3155 8.77952 10.3677C8.89814 10.4199 9.02612 10.4475 9.15571 10.4487C9.28529 10.4499 9.41377 10.4248 9.53334 10.3748C10.9272 9.86874 12.3426 9.87888 13.7784 10.1782Z" fill="#F5EF25"/>
<path d="M5.86031 13.3464C6.05778 13.3487 6.25144 13.292 6.41655 13.1836C6.58165 13.0753 6.71069 12.9201 6.78719 12.7381C6.86368 12.556 6.88416 12.3553 6.84599 12.1615C6.80783 11.9677 6.71276 11.7897 6.57294 11.6503C6.43311 11.5108 6.25488 11.4162 6.06102 11.3785C5.86715 11.3409 5.66646 11.3619 5.48459 11.4388C5.30272 11.5158 5.14793 11.6453 5.03999 11.8106C4.93205 11.976 4.87588 12.1698 4.87864 12.3673C4.88478 12.6255 4.99026 12.8714 5.17311 13.0537C5.35596 13.2361 5.60211 13.341 5.86031 13.3464Z" fill="#F5EF25"/>
<path d="M26.431 1.99253C26.6884 1.98986 26.9343 1.88583 27.1155 1.70301C27.2967 1.52018 27.3984 1.27331 27.3988 1.01593C27.4041 0.883178 27.3823 0.750728 27.3347 0.626704C27.287 0.50268 27.2146 0.389697 27.1217 0.294688C27.0288 0.199678 26.9175 0.124645 26.7946 0.0741917C26.6717 0.023738 26.5398 -0.00107248 26.4069 0.00128238C26.149 0.00888159 25.9036 0.114499 25.7207 0.296638C25.5379 0.478776 25.4313 0.723746 25.4227 0.981686C25.4237 1.24903 25.5302 1.50518 25.719 1.69446C25.9078 1.88374 26.1637 1.99086 26.431 1.99253Z" fill="#F5EF25"/>
</svg>
