<svg width="51" height="52" viewBox="0 0 51 52" fill="none" xmlns="http://www.w3.org/2000/svg">
<path d="M0 27.3872C0.375859 26.2955 1.0625 25.5584 2.27109 25.4654C2.49953 25.4481 2.76383 25.4242 2.95906 25.5159C3.42789 25.7377 3.69484 25.5238 4.00961 25.2078C6.2993 22.8995 8.5974 20.6 10.9039 18.3095C11.0208 18.1939 11.131 18.0717 11.2399 17.9575C10.2837 16.3638 10.2159 14.3092 11.8548 12.7008C12.9652 11.6117 14.9188 11.0367 16.9376 12.2373C17.0372 12.151 17.1514 12.062 17.2523 11.9597C19.6323 9.57794 22.0092 7.19307 24.383 4.8051C24.5159 4.67229 24.6261 4.40666 24.5823 4.23799C24.1838 2.77705 24.8014 1.57244 26.2198 1.07838C26.2803 1.05237 26.3392 1.02311 26.3965 0.990723L27.3926 0.990723C27.4342 1.01962 27.4787 1.0441 27.5254 1.06377C28.9425 1.56447 29.6331 2.81955 29.2294 4.13838C28.7938 5.55682 27.2372 6.17307 26.0857 5.73877C25.9529 5.6883 25.6873 5.80783 25.5545 5.93002C24.2502 7.20635 22.962 8.49729 21.671 9.78158C21.5873 9.86393 21.5183 9.96221 21.4213 10.0778C29.75 6.88096 37.5302 7.81729 44.8734 12.9438C45.2532 12.5454 45.6277 12.1204 46.0275 11.7233C46.5136 11.2399 46.9041 11.2438 47.3968 11.7313C48.2468 12.5706 49.091 13.4153 49.9295 14.2653C50.3001 14.6425 50.6441 15.0449 51 15.4354V15.9335C49.7542 17.1952 48.5164 18.4635 47.26 19.7133C46.9266 20.0453 46.4857 20.036 46.1444 19.7027C44.9677 18.5516 43.8011 17.394 42.6448 16.2296C42.3008 15.8803 42.326 15.4421 42.6687 15.0728C42.9715 14.7448 43.2902 14.4327 43.5984 14.1126C36.4969 8.65002 25.8533 8.34986 18.3069 13.7142C19.0838 15.5735 18.9205 17.3001 17.3772 18.6973C16.0026 19.9404 14.4035 20.0254 12.742 19.287C7.74828 26.0046 7.21703 36.8435 13.163 44.6674C13.4605 44.3381 13.7328 44.0034 14.0409 43.7019C14.458 43.2928 14.8962 43.2928 15.3093 43.7019C16.44 44.8255 17.5618 45.9571 18.6748 47.0966C19.036 47.4658 19.0639 47.9014 18.7186 48.2494C17.4688 49.5071 16.1952 50.7449 14.9388 51.9894H14.4407C14.2892 51.8894 14.1446 51.7793 14.0077 51.66C12.9036 50.5612 11.8017 49.4584 10.702 48.3517C10.2438 47.8895 10.2531 47.491 10.7286 47.0235C11.139 46.6171 11.5746 46.2373 11.9611 45.88C6.82789 38.4903 5.89687 30.7155 9.05516 22.4134C7.67789 23.7415 6.34578 25.1095 4.98977 26.4496C4.72414 26.7072 4.67898 26.9144 4.77992 27.2664C4.9536 27.8641 4.88731 28.5059 4.59515 29.0555C4.30299 29.6051 3.80799 30.0191 3.21539 30.2095C2.63552 30.407 2.00253 30.3787 1.44256 30.1304C0.88259 29.882 0.436756 29.4318 0.193906 28.8694C0.132813 28.7379 0.0650781 28.6157 0 28.4829V27.3872ZM14.6957 18.1541C15.0241 18.1538 15.3491 18.0879 15.6517 17.9602C15.9543 17.8325 16.2282 17.6456 16.4575 17.4105C16.6868 17.1754 16.8668 16.8969 16.9869 16.5912C17.1069 16.2855 17.1647 15.959 17.1567 15.6306C17.1504 14.9759 16.8869 14.35 16.4229 13.888C15.9589 13.426 15.3318 13.1651 14.6771 13.1617C14.0139 13.1693 13.3801 13.4368 12.912 13.9066C12.4439 14.3765 12.1788 15.0112 12.1736 15.6745C12.176 16.003 12.2432 16.3278 12.3714 16.6303C12.4995 16.9328 12.686 17.2071 12.9203 17.4374C13.1546 17.6678 13.432 17.8496 13.7366 17.9726C14.0413 18.0956 14.3672 18.1572 14.6957 18.1541ZM12.4379 47.6703L14.6864 49.9361L16.9442 47.6783L14.6864 45.4205L12.4379 47.6703ZM46.6916 17.8924L48.9494 15.6426L46.7208 13.422L44.4776 15.6585C45.2001 16.3877 45.9531 17.1474 46.6916 17.8924ZM27.7419 3.45572C27.7472 3.23014 27.6628 3.01167 27.5072 2.8483C27.3515 2.68493 27.1374 2.59004 26.9118 2.58447C26.6914 2.58401 26.4795 2.66959 26.3212 2.82301C26.1629 2.97643 26.0708 3.18557 26.0643 3.40591C26.0579 3.62624 26.1378 3.84038 26.2869 4.00274C26.436 4.16509 26.6426 4.26284 26.8627 4.27518C26.9743 4.27961 27.0858 4.26189 27.1905 4.22302C27.2953 4.18415 27.3913 4.12491 27.4731 4.04872C27.5548 3.97252 27.6207 3.88089 27.6668 3.77911C27.7129 3.67733 27.7385 3.56742 27.7419 3.45572ZM2.46234 27.0565C2.35853 27.0482 2.25412 27.0619 2.156 27.0968C2.05787 27.1317 1.96823 27.187 1.89297 27.259C1.81772 27.331 1.75854 27.4181 1.71933 27.5146C1.68012 27.6111 1.66177 27.7148 1.66547 27.8189C1.66243 27.931 1.68202 28.0426 1.72306 28.147C1.7641 28.2515 1.82575 28.3465 1.90433 28.4266C1.98292 28.5067 2.07682 28.5701 2.18045 28.6131C2.28408 28.6561 2.39531 28.6778 2.5075 28.6768C2.6116 28.678 2.71485 28.658 2.81102 28.6181C2.90719 28.5782 2.99427 28.5193 3.06701 28.4448C3.13975 28.3703 3.19664 28.2818 3.23424 28.1848C3.27185 28.0877 3.28938 27.984 3.28578 27.8799C3.28543 27.6617 3.19856 27.4524 3.04421 27.2981C2.88987 27.1437 2.68063 27.0569 2.46234 27.0565Z" fill="#F5EF25"/>
<path d="M37.5527 51.9907C37.3575 51.7517 37.1145 51.5378 36.9763 51.2696C36.2034 49.7661 35.4689 48.2428 34.6867 46.7446C34.5395 46.48 34.3088 46.2717 34.0306 46.1523C31.4097 45.1217 28.7814 44.1105 26.1455 43.1189C25.9428 43.0526 25.7579 42.9409 25.605 42.7922C25.4522 42.6434 25.3354 42.4617 25.2636 42.2609C22.5994 35.5645 19.9237 28.8729 17.2364 22.1863C17.0239 21.655 17.0691 21.2566 17.502 20.8489C18.3215 20.0732 19.1144 19.2684 19.8927 18.4582C20.2499 18.089 20.6125 18.0027 21.0986 18.1926C27.849 20.8984 34.6034 23.5963 41.3618 26.2862C41.7749 26.4509 41.9781 26.7404 42.1281 27.1322C43.1295 29.7646 44.1336 32.3956 45.1642 35.0173C45.2832 35.295 45.4911 35.5254 45.7552 35.6721C47.2534 36.4556 48.7754 37.1901 50.2788 37.9644C50.5445 38.0972 50.7609 38.3456 51 38.5408V39.0389C50.842 39.2301 50.6972 39.4373 50.5232 39.6086C46.5574 43.5779 42.5894 47.5455 38.6192 51.5113C38.4452 51.6853 38.2407 51.83 38.0508 51.9881L37.5527 51.9907ZM19.1927 21.4346C18.9404 21.6059 18.7784 21.7825 18.9497 22.2075C21.5024 28.5374 24.04 34.8734 26.5625 41.2156C26.6104 41.3532 26.6896 41.4778 26.7937 41.5797C26.8979 41.6815 27.0242 41.7578 27.1628 41.8027C29.5959 42.7262 32.0233 43.6607 34.4449 44.6063C34.7823 44.7392 34.9762 44.6701 35.2152 44.4271C37.953 41.6725 40.6977 38.9277 43.4496 36.1927C43.7046 35.939 43.7299 35.7398 43.6037 35.4184C42.6687 33.0278 41.7474 30.6309 40.8399 28.2279C40.7834 28.0589 40.6883 27.9054 40.5622 27.7796C40.4361 27.6537 40.2824 27.5589 40.1134 27.5028C33.8331 25.0032 27.5568 22.4931 21.2845 19.9723C20.8556 19.7996 20.6085 19.8541 20.4651 20.1609L30.7355 30.4313C33.227 28.8721 35.8647 29.8668 37.0932 31.5283C37.7709 32.426 38.1032 33.5374 38.0296 34.6598C37.956 35.7822 37.4814 36.8406 36.6923 37.6422C35.9032 38.4437 34.8522 38.9348 33.7311 39.0259C32.61 39.117 31.4936 38.802 30.5854 38.1384C28.9824 36.9882 27.7963 34.3891 29.4445 31.689L19.1927 21.4346ZM36.0679 45.9079L37.9724 49.705L48.7103 38.9751L44.9119 37.0759L36.0679 45.9079ZM33.3359 31.2547C32.9246 31.2488 32.5162 31.325 32.1346 31.4789C31.7531 31.6327 31.4061 31.8612 31.1139 32.1508C30.8217 32.4404 30.5903 32.7854 30.433 33.1656C30.2758 33.5458 30.196 33.9535 30.1983 34.3649C30.2006 34.7763 30.285 35.1831 30.4464 35.5615C30.6079 35.9399 30.8432 36.2822 31.1386 36.5686C31.434 36.8549 31.7835 37.0795 32.1667 37.2291C32.55 37.3787 32.9592 37.4503 33.3705 37.4398C34.1839 37.4253 34.9596 37.0942 35.5327 36.5169C36.1059 35.9395 36.4313 35.1614 36.4398 34.3479C36.4398 33.9408 36.3594 33.5377 36.2033 33.1617C36.0472 32.7858 35.8184 32.4443 35.53 32.1569C35.2417 31.8696 34.8994 31.6419 34.5229 31.4871C34.1464 31.3323 33.743 31.2533 33.3359 31.2547Z" fill="#F5EF25"/>
</svg>
