<svg width="51" height="52" viewBox="0 0 51 52" fill="none" xmlns="http://www.w3.org/2000/svg">
<path d="M25.5019 51.0013H2.92743C0.992657 51 0 49.9996 0 48.0492V2.95205C0 0.973218 0.980993 0 2.98056 0H48.0194C50.0384 0 51 0.969331 51 3.00259V48.0454C51 50.0216 50.0125 51.0013 48.0194 51.0013H25.5019ZM49.3011 8.53737H1.70022V47.9793C1.70022 49.0937 1.90886 49.3011 3.03499 49.3011H47.9689C49.0911 49.3011 49.3011 49.0911 49.3011 47.9754V8.53737ZM1.70281 6.76328H49.3011V2.96372C49.3011 1.927 49.0717 1.70022 48.0143 1.70022H2.98056C2.83931 1.70022 2.69676 1.70022 2.55551 1.70022C2.04752 1.7365 1.71447 2.03585 1.70929 2.53996C1.69114 3.93953 1.70281 5.33521 1.70281 6.76328Z" fill="#F5EF25"/>
<path d="M18.3292 11.9002H30.2281C31.2039 11.9002 31.4501 12.1464 31.4501 13.1222C31.4501 18.5417 31.4501 23.9607 31.4501 29.3793C31.4501 30.3525 31.2026 30.6 30.2268 30.6H6.32138C5.34687 30.6 5.10065 30.3538 5.10065 29.3767C5.10065 23.959 5.10065 18.5404 5.10065 13.1209C5.10065 12.1451 5.34557 11.9002 6.32268 11.9002H18.3292ZM6.81382 26.8821C6.98747 26.641 7.09244 26.5063 7.18704 26.3637C8.71879 24.0674 10.2497 21.7702 11.7797 19.4721C12.4587 18.4536 13.0406 18.4587 13.7313 19.4942L14.9093 21.2605L16.4501 23.5581C16.6199 23.2989 16.7546 23.098 16.8829 22.8933C18.3361 20.5676 19.7883 18.241 21.2397 15.9136C21.4821 15.5248 21.7983 15.2034 22.2674 15.3706C22.5702 15.4995 22.8253 15.7197 22.997 16.0004C25.13 19.381 27.2523 22.7698 29.3637 26.1667C29.4583 26.3184 29.5685 26.4609 29.7188 26.676V13.6393H6.81382V26.8821ZM29.0566 28.8777L22.1002 17.7538C19.752 21.5119 17.4648 25.1702 15.149 28.8752L29.0566 28.8777ZM7.54471 28.8998C9.39914 28.8998 11.1305 28.9076 12.8579 28.8881C12.9465 28.8757 13.0315 28.8449 13.1074 28.7975C13.1833 28.7502 13.2484 28.6875 13.2985 28.6134C13.9698 27.5767 14.6125 26.5192 15.2825 25.4812C15.4445 25.2285 15.4121 25.0536 15.2527 24.819C14.6708 23.9754 14.1123 23.1175 13.5421 22.2661C13.292 21.8903 13.038 21.5184 12.7477 21.0894L7.54471 28.8998Z" fill="#F5EF25"/>
<path d="M11.0501 34.0004C12.679 34.0004 14.308 34.0004 15.9369 34.0004C16.7002 34.0004 16.9983 34.2998 16.9996 35.0618C16.9996 38.3196 16.9996 41.578 16.9996 44.8367C16.9996 45.5987 16.6989 45.898 15.9369 45.898C12.6773 45.898 9.41899 45.898 6.16197 45.898C5.39998 45.898 5.10193 45.5987 5.10193 44.8354C5.10193 41.5775 5.10193 38.3196 5.10193 35.0618C5.10193 34.2985 5.39869 34.003 6.16327 34.0004C7.79221 33.9978 9.42115 34.0004 11.0501 34.0004ZM6.82806 35.724V44.168H15.2631V35.724H6.82806Z" fill="#F5EF25"/>
<path d="M31.4501 39.9512C31.4501 41.5801 31.4501 43.2091 31.4501 44.838C31.4501 45.6 31.1495 45.8993 30.3875 45.8993C27.1296 45.8993 23.8717 45.8993 20.6138 45.8993C19.8518 45.8993 19.5538 45.6 19.5525 44.8367C19.5525 41.5788 19.5525 38.3209 19.5525 35.063C19.5525 34.2998 19.8505 34.003 20.6138 34.0017C23.8734 34.0017 27.1318 34.0017 30.3888 34.0017C31.1508 34.0017 31.4488 34.3011 31.4501 35.063C31.454 36.692 31.4501 38.3209 31.4501 39.9512ZM21.2877 35.7252V44.1589H29.7227V35.7252H21.2877Z" fill="#F5EF25"/>
<path d="M39.8967 45.9006C38.2859 45.9006 36.6751 45.9006 35.063 45.9006C34.3011 45.9006 34.003 45.6013 34.0017 44.8393C34.0017 41.5814 34.0017 38.3231 34.0017 35.0644C34.0017 34.3011 34.2998 34.0043 35.063 34.003C38.3209 34.003 41.5788 34.003 44.8367 34.003C45.6 34.003 45.8993 34.3011 45.8993 35.0644C45.8993 38.3222 45.8993 41.5801 45.8993 44.838C45.8993 45.6 45.5987 45.8994 44.838 45.9006C43.1909 45.9032 41.5438 45.9006 39.8967 45.9006ZM44.1628 44.1771V35.7434H35.7291V44.1771H44.1628Z" fill="#F5EF25"/>
<path d="M39.9136 17.0008C38.3015 17.0008 36.6903 17.0008 35.0799 17.0008C34.4035 17.0008 34.0173 16.6911 34.0082 16.1637C33.9991 15.6363 34.397 15.3032 35.0553 15.3032C38.3132 15.3032 41.5711 15.3032 44.8289 15.3032C45.5041 15.3032 45.8916 15.6116 45.9007 16.1404C45.9097 16.6691 45.5119 17.0008 44.8004 17.0021C43.1693 17.003 41.5404 17.0026 39.9136 17.0008Z" fill="#F5EF25"/>
<path d="M40.0043 18.6998C41.6156 18.6998 43.2268 18.6998 44.838 18.6998C45.508 18.6998 45.8968 19.0199 45.8968 19.5486C45.8968 20.0773 45.508 20.3974 44.8367 20.3974C41.5788 20.3974 38.321 20.3974 35.0631 20.3974C34.3931 20.3974 34.0043 20.0773 34.0043 19.5473C34.0043 19.0173 34.3931 18.7011 35.0644 18.6998C36.7102 18.6981 38.3568 18.6981 40.0043 18.6998Z" fill="#F5EF25"/>
<path d="M39.8981 23.8004C38.2873 23.8004 36.6752 23.8004 35.0644 23.8004C34.3944 23.8004 34.0056 23.4829 34.0043 22.9529C34.003 22.4229 34.3931 22.1028 35.0618 22.1028C38.3197 22.1028 41.5776 22.1028 44.8354 22.1028C45.5067 22.1028 45.8955 22.4203 45.8968 22.9503C45.8981 23.4804 45.508 23.7991 44.838 23.8004C43.1922 23.803 41.5452 23.8004 39.8981 23.8004Z" fill="#F5EF25"/>
<path d="M39.9499 25.5007C41.5801 25.5007 43.2091 25.5007 44.838 25.5007C45.508 25.5007 45.8968 25.8195 45.8968 26.3495C45.8968 26.8795 45.508 27.197 44.8367 27.1983C41.5788 27.1983 38.321 27.1983 35.0631 27.1983C34.3931 27.1983 34.0043 26.8782 34.0043 26.3482C34.0043 25.8182 34.3931 25.502 35.0631 25.5007C36.692 25.4981 38.321 25.5007 39.9499 25.5007Z" fill="#F5EF25"/>
<path d="M42.0713 11.9002C43.0095 11.9002 43.9478 11.9002 44.8873 11.9002C45.5132 11.9002 45.8942 12.2307 45.8968 12.7451C45.8994 13.2596 45.5158 13.5953 44.8938 13.5966C43.0173 13.6017 41.1404 13.6017 39.2631 13.5966C38.6372 13.5966 38.2575 13.2674 38.2549 12.7516C38.2523 12.2359 38.6294 11.9054 39.2566 11.9002C40.1949 11.895 41.1331 11.9002 42.0713 11.9002Z" fill="#F5EF25"/>
<path d="M37.8259 30.6C36.8877 30.6 35.9495 30.6 35.0113 30.6C34.3853 30.6 34.0056 30.267 34.0043 29.7525C34.003 29.238 34.3814 28.905 35.0087 28.9037C36.8868 28.8985 38.7637 28.8985 40.6393 28.9037C41.264 28.9037 41.6449 29.2354 41.6462 29.7512C41.6475 30.267 41.2639 30.5961 40.6406 30.6C39.7024 30.6052 38.7642 30.6 37.8259 30.6Z" fill="#F5EF25"/>
<path d="M35.2691 11.9002C36.1451 11.9002 36.5417 12.1594 36.5456 12.7438C36.5495 13.3283 36.1413 13.6004 35.2808 13.6004C34.4203 13.6004 34.0095 13.3412 34.0043 12.7555C33.9991 12.1698 34.4061 11.9002 35.2691 11.9002Z" fill="#F5EF25"/>
<path d="M44.6216 30.6H44.409C43.7417 30.5922 43.3529 30.276 43.3555 29.746C43.3581 29.216 43.7443 28.9075 44.4168 28.9011C44.6112 28.9011 44.8056 28.8933 45 28.9011C45.5417 28.927 45.898 29.2691 45.8967 29.7512C45.8954 30.2333 45.5365 30.5689 44.9896 30.5961C44.8704 30.6052 44.746 30.6 44.6216 30.6Z" fill="#F5EF25"/>
<path d="M32.2471 5.10064H22.5278C22.3511 5.11192 22.1738 5.10758 21.9978 5.08768C21.5417 5.00345 21.2643 4.72224 21.2643 4.25183C21.2643 3.78142 21.5404 3.50021 21.9978 3.41468C22.1561 3.39605 22.3157 3.39172 22.4747 3.40172H42.127C42.286 3.39172 42.4456 3.39605 42.6039 3.41468C43.0626 3.49891 43.3386 3.78142 43.3386 4.25053C43.3386 4.71965 43.0613 5.00345 42.6052 5.08768C42.4292 5.10758 42.2519 5.11192 42.0751 5.10064H32.2471Z" fill="#F5EF25"/>
<path d="M4.64838 5.09286C4.48957 5.10259 4.33031 5.10259 4.17149 5.09286C3.95666 5.07498 3.75712 4.97454 3.61479 4.81263C3.47246 4.65073 3.39842 4.43996 3.40821 4.22461C3.40625 4.01727 3.48439 3.81717 3.62636 3.66603C3.76832 3.5149 3.96314 3.42439 4.1702 3.41338C4.4524 3.38723 4.73625 3.38376 5.01901 3.40301C5.5892 3.42116 5.96113 3.77753 5.94558 4.27515C5.93002 4.75334 5.56977 5.07602 5.02031 5.09934C4.89072 5.09934 4.77279 5.09934 4.64838 5.09934V5.09286Z" fill="#F5EF25"/>
<path d="M8.92483 3.40045H9.08422C9.80085 3.40045 10.1961 3.70628 10.1961 4.24926C10.1961 4.79224 9.79955 5.09548 9.08422 5.09937C8.90668 5.09937 8.72914 5.09937 8.5529 5.09937C8.00992 5.07215 7.65485 4.73263 7.65485 4.25055C7.65485 3.76848 8.00992 3.43155 8.5529 3.40304C8.68249 3.39526 8.80042 3.40174 8.92483 3.40045Z" fill="#F5EF25"/>
<path d="M13.2181 3.40303C13.3594 3.40303 13.5019 3.39266 13.6419 3.40303C13.8573 3.41721 14.059 3.51339 14.2056 3.67179C14.3522 3.83019 14.4325 4.03875 14.43 4.25457C14.4275 4.47038 14.3424 4.67703 14.1922 4.83201C14.042 4.98698 13.8381 5.07848 13.6225 5.08769C13.3205 5.10997 13.0173 5.10997 12.7153 5.08769C12.5002 5.0804 12.296 4.99061 12.1453 4.83694C11.9945 4.68326 11.9086 4.47747 11.9054 4.26221C11.8963 3.79828 12.2345 3.4419 12.7348 3.40173C12.8916 3.39266 13.0523 3.40303 13.2181 3.40303Z" fill="#F5EF25"/>
<path d="M46.3218 5.09935H46.1093C45.4419 5.09157 45.0531 4.77667 45.0557 4.24535C45.0583 3.71404 45.4445 3.40691 46.1158 3.40043C46.3115 3.40043 46.5046 3.39265 46.7002 3.40043C47.2419 3.42635 47.5983 3.76846 47.5957 4.25054C47.5931 4.73261 47.2367 5.06825 46.6886 5.09546C46.5693 5.10453 46.4462 5.09935 46.3218 5.09935Z" fill="#F5EF25"/>
</svg>
